<?xml version="1.0" standalone="no"?>
<!DOCTYPE svg PUBLIC "-//W3C//DTD SVG 20010904//EN"
 "http://www.w3.org/TR/2001/REC-SVG-20010904/DTD/svg10.dtd">
<svg version="1.0" xmlns="http://www.w3.org/2000/svg"
 width="500.000000pt" height="500.000000pt" viewBox="0 0 500.000000 500.000000"
 preserveAspectRatio="xMidYMid meet">
<metadata>
Created by potrace 1.14, written by Peter Selinger 2001-2017
</metadata>
<g transform="translate(0.000000,500.000000) scale(0.100000,-0.100000)"
fill="#000000" stroke="none">
<path d="M160 2495 l0 -2345 2345 0 2345 0 0 2345 0 2345 -2345 0 -2345 0 0
-2345z m4520 0 l0 -2175 -2175 0 -2175 0 0 2175 0 2175 2175 0 2175 0 0 -2175z"/>
<path d="M3175 3451 c-199 -32 -356 -109 -476 -231 -115 -119 -188 -265 -231
-463 -32 -149 -32 -456 1 -606 64 -301 208 -501 439 -616 235 -116 583 -121
836 -14 180 77 343 250 420 446 89 228 106 580 41 840 -29 115 -104 273 -169
355 -99 124 -259 226 -421 268 -89 23 -349 35 -440 21z m370 -217 c279 -74
433 -301 454 -667 19 -355 -46 -605 -197 -756 -122 -121 -245 -165 -457 -165
-183 0 -283 30 -404 119 -152 112 -239 317 -256 608 -19 299 58 571 201 712
88 88 193 138 342 165 66 13 246 4 317 -16z"/>
<path d="M850 2450 l0 -980 115 0 115 0 0 383 0 382 104 92 104 93 358 -475
357 -475 135 0 134 0 -24 33 c-205 269 -788 1073 -785 1081 4 10 328 362 670
729 l109 117 -135 0 -136 0 -443 -485 -443 -486 -3 486 -2 485 -115 0 -115 0
0 -980z"/>
</g>
</svg>
